  0
SECTION
  2
HEADER
  9
$ACADVER
  1
AC1014
  9
$HANDSEED
  5
FFFF
  9
$MEASUREMENT
 70
     1
  0
ENDSEC
  0
SECTION
  2
TABLES
  0
TABLE
  2
VPORT
  5
8
330
0
100
AcDbSymbolTable
 70
     4
  0
VPORT
  5
2E
330
8
100
AcDbSymbolTableRecord
100
AcDbViewportTableRecord
  2
*ACTIVE
 70
     0
 10
0.0
 20
0.0
 11
1.0
 21
1.0
 12
210.0
 22
148.5
 13
0.0
 23
0.0
 14
10.0
 24
10.0
 15
10.0
 25
10.0
 16
0.0
 26
0.0
 36
1.0
 17
0.0
 27
0.0
 37
0.0
 40
341.0
 41
1.24
 42
50.0
 43
0.0
 44
0.0
 50
0.0
 51
0.0
 71
     0
 72
   100
 73
     1
 74
     3
 75
     0
 76
     0
 77
     0
 78
     0
  0
ENDTAB
  0
TABLE
  2
LTYPE
  5
5
330
0
100
AcDbSymbolTable
 70
     1
  0
LTYPE
  5
14
330
5
100
AcDbSymbolTableRecord
100
AcDbLinetypeTableRecord
  2
BYBLOCK
 70
     0
  3

 72
    65
 73
     0
 40
0.0
  0
LTYPE
  5
15
330
5
100
AcDbSymbolTableRecord
100
AcDbLinetypeTableRecord
  2
BYLAYER
 70
     0
  3

 72
    65
 73
     0
 40
0.0
  0
LTYPE
  5
16
330
5
100
AcDbSymbolTableRecord
100
AcDbLinetypeTableRecord
  2
CONTINUOUS
 70
     0
  3
Solid line
 72
    65
 73
     0
 40
0.0
  0
ENDTAB
  0
TABLE
  2
LAYER
  5
2
100
AcDbSymbolTable
 70
5
  0
LAYER
  5
50
100
AcDbSymbolTableRecord
100
AcDbLayerTableRecord
  2
0
 70
0
  6
CONTINUOUS
  0
LAYER
  5
51
100
AcDbSymbolTableRecord
100
AcDbLayerTableRecord
  2
Whole-Brain-Background
 70
0
  6
CONTINUOUS
  0
LAYER
  5
52
100
AcDbSymbolTableRecord
100
AcDbLayerTableRecord
  2
Right-Brain-Inside
 70
0
  6
CONTINUOUS
  0
LAYER
  5
53
100
AcDbSymbolTableRecord
100
AcDbLayerTableRecord
  2
Left-Brain-Traces
 70
0
  6
CONTINUOUS
  0
LAYER
  5
54
100
AcDbSymbolTableRecord
100
AcDbLayerTableRecord
  2
Left-Brain-Vias
 70
0
  6
CONTINUOUS
  0
ENDTAB
  0
TABLE
  2
STYLE
  5
3
330
0
100
AcDbSymbolTable
 70
     1
  0
STYLE
  5
11
330
3
100
AcDbSymbolTableRecord
100
AcDbTextStyleTableRecord
  2
STANDARD
 70
     0
 40
0.0
 41
1.0
 50
0.0
 71
     0
 42
2.5
  3
txt
  4

  0
ENDTAB
  0
TABLE
  2
VIEW
  5
6
330
0
100
AcDbSymbolTable
 70
     0
  0
ENDTAB
  0
TABLE
  2
UCS
  5
7
330
0
100
AcDbSymbolTable
 70
     0
  0
ENDTAB
  0
TABLE
  2
APPID
  5
9
330
0
100
AcDbSymbolTable
 70
     2
  0
APPID
  5
12
330
9
100
AcDbSymbolTableRecord
100
AcDbRegAppTableRecord
  2
ACAD
 70
     0
  0
ENDTAB
  0
TABLE
  2
DIMSTYLE
  5
A
330
0
100
AcDbSymbolTable
 70
     1
  0
DIMSTYLE
105
27
330
A
100
AcDbSymbolTableRecord
100
AcDbDimStyleTableRecord
  2
ISO-25
 70
     0
  3

  4

  5

  6

  7

 40
1.0
 41
2.5
 42
0.625
 43
3.75
 44
1.25
 45
0.0
 46
0.0
 47
0.0
 48
0.0
140
2.5
141
2.5
142
0.0
143
0.03937007874016
144
1.0
145
0.0
146
1.0
147
0.625
 71
     0
 72
     0
 73
     0
 74
     0
 75
     0
 76
     0
 77
     1
 78
     8
170
     0
171
     3
172
     1
173
     0
174
     0
175
     0
176
     0
177
     0
178
     0
270
     2
271
     2
272
     2
273
     2
274
     3
340
11
275
     0
280
     0
281
     0
282
     0
283
     0
284
     8
285
     0
286
     0
287
     3
288
     0
  0
ENDTAB
  0
TABLE
  2
BLOCK_RECORD
  5
1
330
0
100
AcDbSymbolTable
 70
     1
  0
BLOCK_RECORD
  5
1F
330
1
100
AcDbSymbolTableRecord
100
AcDbBlockTableRecord
  2
*MODEL_SPACE
  0
BLOCK_RECORD
  5
1B
330
1
100
AcDbSymbolTableRecord
100
AcDbBlockTableRecord
  2
*PAPER_SPACE
  0
ENDTAB
  0
ENDSEC
  0
SECTION
  2
BLOCKS
  0
BLOCK
  5
20
330
1F
100
AcDbEntity
  8
0
100
AcDbBlockBegin
  2
*MODEL_SPACE
 70
     0
 10
0.0
 20
0.0
 30
0.0
  3
*MODEL_SPACE
  1

  0
ENDBLK
  5
21
330
1F
100
AcDbEntity
  8
0
100
AcDbBlockEnd
  0
BLOCK
  5
1C
330
1B
100
AcDbEntity
 67
     1
  8
0
100
AcDbBlockBegin
  2
*PAPER_SPACE
  1

  0
ENDBLK
  5
1D
330
1B
100
AcDbEntity
 67
     1
  8
0
100
AcDbBlockEnd
  0
ENDSEC
  0
SECTION
  2
ENTITIES
  0
LWPOLYLINE
  5
100
100
AcDbEntity
  8
Whole-Brain-Background
 62
1
100
AcDbPolyline
 90
435
 70
1
 10
34.287663
 20
99.992062
 30
0.0
 10
32.881039
 20
99.964155
 30
0.0
 10
31.455098
 20
99.795057
 30
0.0
 10
30.042123
 20
99.557562
 30
0.0
 10
28.650581
 20
99.244159
 30
0.0
 10
27.288674
 20
98.847349
 30
0.0
 10
26.443720
 20
98.539307
 30
0.0
 10
25.624830
 20
98.182957
 30
0.0
 10
24.843143
 20
97.772236
 30
0.0
 10
24.109798
 20
97.301089
 30
0.0
 10
23.460756
 20
96.777494
 30
0.0
 10
22.888845
 20
96.190395
 30
0.0
 10
22.424309
 20
95.541564
 30
0.0
 10
22.241760
 20
95.194592
 30
0.0
 10
22.097367
 20
94.832828
 30
0.0
 10
22.006635
 20
94.488289
 30
0.0
 10
21.962182
 20
94.136448
 30
0.0
 10
21.912966
 20
93.785506
 30
0.0
 10
21.807972
 20
93.443667
 30
0.0
 10
21.676623
 20
93.184066
 30
0.0
 10
21.509765
 20
92.942563
 30
0.0
 10
21.086878
 20
92.513934
 30
0.0
 10
20.574000
 20
92.157648
 30
0.0
 10
20.005873
 20
91.873624
 30
0.0
 10
18.193455
 20
91.251412
 30
0.0
 10
17.202890
 20
90.867104
 30
0.0
 10
16.233388
 20
90.441994
 30
0.0
 10
15.290241
 20
89.975210
 30
0.0
 10
14.378713
 20
89.465772
 30
0.0
 10
13.504124
 20
88.912780
 30
0.0
 10
12.671712
 20
88.315308
 30
0.0
 10
11.886797
 20
87.672405
 30
0.0
 10
11.154616
 20
86.983143
 30
0.0
 10
10.467286
 20
86.234213
 30
0.0
 10
9.848011
 20
85.442021
 30
0.0
 10
9.301476
 20
84.611541
 30
0.0
 10
8.832416
 20
83.747668
 30
0.0
 10
8.445541
 20
82.855403
 30
0.0
 10
8.145614
 20
81.939642
 30
0.0
 10
7.937320
 20
81.005359
 30
0.0
 10
7.825393
 20
80.057501
 30
0.0
 10
7.809332
 20
79.794778
 30
0.0
 10
7.819281
 20
79.530678
 30
0.0
 10
7.814095
 20
79.268087
 30
0.0
 10
7.752522
 20
79.009942
 30
0.0
 10
7.658509
 20
78.805589
 30
0.0
 10
7.530071
 20
78.619257
 30
0.0
 10
7.189131
 20
78.300041
 30
0.0
 10
6.767832
 20
78.051156
 30
0.0
 10
6.304460
 20
77.871438
 30
0.0
 10
5.583764
 20
77.585245
 30
0.0
 10
4.933716
 20
77.192840
 30
0.0
 10
4.646861
 20
76.958588
 30
0.0
 10
4.391652
 20
76.699913
 30
0.0
 10
4.172773
 20
76.417582
 30
0.0
 10
3.994881
 20
76.112231
 30
0.0
 10
3.825853
 20
75.695086
 30
0.0
 10
3.720145
 20
75.266934
 30
0.0
 10
3.673125
 20
74.831743
 30
0.0
 10
3.680058
 20
74.393535
 30
0.0
 10
3.736312
 20
73.956201
 30
0.0
 10
3.837178
 20
73.523735
 30
0.0
 10
4.154039
 20
72.689445
 30
0.0
 10
4.274169
 20
72.384623
 30
0.0
 10
4.350401
 20
72.070541
 30
0.0
 10
4.383952
 20
71.751695
 30
0.0
 10
4.376093
 20
71.431262
 30
0.0
 10
4.241014
 20
70.800186
 30
0.0
 10
3.955085
 20
70.207213
 30
0.0
 10
3.638489
 20
69.764005
 30
0.0
 10
3.259261
 20
69.359957
 30
0.0
 10
2.832564
 20
68.990573
 30
0.0
 10
2.373664
 20
68.650559
 30
0.0
 10
1.969921
 20
68.287260
 30
0.0
 10
1.598791
 20
67.899089
 30
0.0
 10
1.262338
 20
67.488691
 30
0.0
 10
0.962632
 20
67.057919
 30
0.0
 10
0.701739
 20
66.609419
 30
0.0
 10
0.481725
 20
66.145571
 30
0.0
 10
0.304661
 20
65.668494
 30
0.0
 10
0.172610
 20
65.180303
 30
0.0
 10
0.034047
 20
64.223502
 30
0.0
 10
0.017652
 20
63.741662
 30
0.0
 10
0.053746
 20
63.260350
 30
0.0
 10
0.123760
 20
62.699923
 30
0.0
 10
0.233534
 20
62.144259
 30
0.0
 10
0.566641
 20
61.054098
 30
0.0
 10
1.041626
 20
60.002041
 30
0.0
 10
1.647043
 20
59.000522
 30
0.0
 10
1.795165
 20
58.663419
 30
0.0
 10
1.851184
 20
58.306471
 30
0.0
 10
1.821543
 20
57.946083
 30
0.0
 10
1.712678
 20
57.597866
 30
0.0
 10
1.545725
 20
57.054638
 30
0.0
 10
1.458403
 20
56.498974
 30
0.0
 10
1.432070
 20
55.937224
 30
0.0
 10
1.448076
 20
55.376003
 30
0.0
 10
1.562466
 20
54.513135
 30
0.0
 10
1.749868
 20
53.659794
 30
0.0
 10
2.003301
 20
52.818624
 30
0.0
 10
2.315783
 20
51.992007
 30
0.0
 10
2.588632
 20
51.368075
 30
0.0
 10
2.685842
 20
51.047113
 30
0.0
 10
2.716298
 20
50.715037
 30
0.0
 10
2.645818
 20
50.180806
 30
0.0
 10
2.475486
 20
49.662980
 30
0.0
 10
2.222460
 20
49.168703
 30
0.0
 10
1.903893
 20
48.704326
 30
0.0
 10
1.581017
 20
48.148662
 30
0.0
 10
1.375485
 20
47.554895
 30
0.0
 10
1.259478
 20
46.940224
 30
0.0
 10
1.205179
 20
46.321849
 30
0.0
 10
1.217618
 20
45.686010
 30
0.0
 10
1.268543
 20
45.052553
 30
0.0
 10
1.471173
 20
43.794370
 30
0.0
 10
1.783702
 20
42.550476
 30
0.0
 10
2.176763
 20
41.324839
 30
0.0
 10
2.609965
 20
40.088618
 30
0.0
 10
2.776812
 20
39.459395
 30
0.0
 10
2.891491
 20
38.821439
 30
0.0
 10
2.909616
 20
38.446763
 30
0.0
 10
2.861061
 20
38.074203
 30
0.0
 10
2.798536
 20
37.701379
 30
0.0
 10
2.774695
 20
37.325908
 30
0.0
 10
2.720928
 20
36.708062
 30
0.0
 10
2.722542
 20
36.089687
 30
0.0
 10
2.827404
 20
34.854525
 30
0.0
 10
2.995268
 20
33.998802
 30
0.0
 10
3.244470
 20
33.157103
 30
0.0
 10
3.584245
 20
32.340012
 30
0.0
 10
4.023802
 20
31.557319
 30
0.0
 10
4.599285
 20
30.780182
 30
0.0
 10
5.280953
 20
30.067080
 30
0.0
 10
6.064943
 20
29.437062
 30
0.0
 10
6.947364
 20
28.908652
 30
0.0
 10
7.452728
 20
28.675538
 30
0.0
 10
7.919962
 20
28.392943
 30
0.0
 10
8.359519
 20
27.973019
 30
0.0
 10
8.680878
 20
27.483241
 30
0.0
 10
8.894280
 20
26.948480
 30
0.0
 10
9.009911
 20
26.394403
 30
0.0
 10
9.044362
 20
26.021314
 30
0.0
 10
9.034651
 20
25.646902
 30
0.0
 10
9.024887
 20
24.897285
 30
0.0
 10
9.063837
 20
24.371256
 30
0.0
 10
9.146578
 20
23.850254
 30
0.0
 10
9.431475
 20
22.827038
 30
0.0
 10
9.855738
 20
21.837426
 30
0.0
 10
10.395446
 20
20.890945
 30
0.0
 10
10.963812
 20
20.098726
 30
0.0
 10
11.599889
 20
19.344081
 30
0.0
 10
12.302751
 20
18.634418
 30
0.0
 10
13.071447
 20
17.976353
 30
0.0
 10
13.405665
 20
17.619934
 30
0.0
 10
13.640711
 20
17.210859
 30
0.0
 10
13.804844
 20
16.772414
 30
0.0
 10
13.926243
 20
16.327618
 30
0.0
 10
14.049389
 20
15.688339
 30
0.0
 10
14.114164
 20
15.043768
 30
0.0
 10
14.175340
 20
13.749864
 30
0.0
 10
14.136126
 20
13.293426
 30
0.0
 10
14.138772
 20
12.835929
 30
0.0
 10
14.182590
 20
12.379755
 30
0.0
 10
14.266892
 20
11.927550
 30
0.0
 10
14.390991
 20
11.482225
 30
0.0
 10
14.554144
 20
11.045896
 30
0.0
 10
14.755718
 20
10.621739
 30
0.0
 10
14.994971
 20
10.211870
 30
0.0
 10
15.309133
 20
9.779246
 30
0.0
 10
15.662536
 20
9.371229
 30
0.0
 10
16.051369
 20
8.987556
 30
0.0
 10
16.471795
 20
8.628227
 30
0.0
 10
17.392134
 20
7.982068
 30
0.0
 10
18.392938
 20
7.431961
 30
0.0
 10
19.399484
 20
6.992457
 30
0.0
 10
20.443498
 20
6.619897
 30
0.0
 10
21.520402
 20
6.325130
 30
0.0
 10
22.625539
 20
6.118741
 30
0.0
 10
23.790661
 20
5.882186
 30
0.0
 10
24.928397
 20
5.562283
 30
0.0
 10
25.862390
 20
5.236293
 30
0.0
 10
26.776140
 20
4.872994
 30
0.0
 10
28.543417
 20
4.045584
 30
0.0
 10
30.229726
 20
3.100425
 30
0.0
 10
31.834802
 20
2.059216
 30
0.0
 10
32.527001
 20
1.647230
 30
0.0
 10
33.254392
 20
1.286049
 30
0.0
 10
34.011948
 20
0.973818
 30
0.0
 10
34.795170
 20
0.709216
 30
0.0
 10
35.598767
 20
0.490919
 30
0.0
 10
36.417710
 20
0.317340
 30
0.0
 10
37.247502
 20
0.186892
 30
0.0
 10
38.083115
 20
0.098514
 30
0.0
 10
38.979587
 20
0.037127
 30
0.0
 10
39.878176
 20
0.021251
 30
0.0
 10
41.672707
 20
0.111480
 30
0.0
 10
55.643961
 20
0.111480
 30
0.0
 10
56.057005
 20
0.055649
 30
0.0
 10
57.181034
 20
0.020986
 30
0.0
 10
57.946263
 20
0.044800
 30
0.0
 10
58.703819
 20
0.133707
 30
0.0
 10
60.197498
 20
0.425827
 30
0.0
 10
61.493519
 20
0.776160
 30
0.0
 10
62.753554
 20
1.219633
 30
0.0
 10
63.946380
 20
1.776092
 30
0.0
 10
64.508130
 20
2.103140
 30
0.0
 10
65.041568
 20
2.466438
 30
0.0
 10
66.125642
 20
3.210235
 30
0.0
 10
67.276132
 20
3.878884
 30
0.0
 10
68.035805
 20
4.249062
 30
0.0
 10
68.824054
 20
4.575052
 30
0.0
 10
69.641939
 20
4.835950
 30
0.0
 10
70.491576
 20
5.011381
 30
0.0
 10
71.804796
 20
5.194221
 30
0.0
 10
73.101082
 20
5.454589
 30
0.0
 10
74.373818
 20
5.788517
 30
0.0
 10
75.618771
 20
6.191771
 30
0.0
 10
76.413635
 20
6.498709
 30
0.0
 10
77.192094
 20
6.840840
 30
0.0
 10
77.947533
 20
7.218956
 30
0.0
 10
78.674131
 20
7.635704
 30
0.0
 10
79.366065
 20
8.091878
 30
0.0
 10
80.016722
 20
8.589066
 30
0.0
 10
80.620543
 20
9.128589
 30
0.0
 10
81.170916
 20
9.712037
 30
0.0
 10
81.792995
 20
10.524100
 30
0.0
 10
82.297856
 20
11.393847
 30
0.0
 10
82.678883
 20
12.308577
 30
0.0
 10
82.927344
 20
13.256381
 30
0.0
 10
83.120239
 20
14.010233
 30
0.0
 10
83.404951
 20
14.743180
 30
0.0
 10
83.619014
 20
15.178186
 30
0.0
 10
83.876207
 20
15.597316
 30
0.0
 10
84.187379
 20
15.987075
 30
0.0
 10
84.562585
 20
16.333439
 30
0.0
 10
85.115074
 20
16.843856
 30
0.0
 10
85.618347
 20
17.390259
 30
0.0
 10
86.201266
 20
18.105479
 30
0.0
 10
86.741318
 20
18.845571
 30
0.0
 10
87.234537
 20
19.609742
 30
0.0
 10
87.676422
 20
20.396933
 30
0.0
 10
88.061418
 20
21.204234
 30
0.0
 10
88.385291
 20
22.030586
 30
0.0
 10
88.643807
 20
22.873343
 30
0.0
 10
88.831410
 20
23.732506
 30
0.0
 10
88.918729
 20
24.376283
 30
0.0
 10
88.953392
 20
25.023764
 30
0.0
 10
88.922433
 20
26.321108
 30
0.0
 10
88.923492
 20
26.553164
 30
0.0
 10
88.964240
 20
26.780987
 30
0.0
 10
89.153960
 20
27.211494
 30
0.0
 10
89.468043
 20
27.586171
 30
0.0
 10
89.885585
 20
27.877233
 30
0.0
 10
90.255763
 20
28.064307
 30
0.0
 10
90.611653
 20
28.270432
 30
0.0
 10
91.955567
 20
29.257927
 30
0.0
 10
93.206076
 20
30.331946
 30
0.0
 10
93.863877
 20
30.995568
 30
0.0
 10
94.477489
 20
31.690678
 30
0.0
 10
95.028390
 20
32.421774
 30
0.0
 10
95.500705
 20
33.193353
 30
0.0
 10
95.732761
 20
33.650321
 30
0.0
 10
95.924862
 20
34.122636
 30
0.0
 10
96.074362
 20
34.606857
 30
0.0
 10
96.175176
 20
35.099546
 30
0.0
 10
96.224127
 20
35.596469
 30
0.0
 10
96.216983
 20
36.094186
 30
0.0
 10
96.149245
 20
36.588727
 30
0.0
 10
96.016944
 20
37.077711
 30
0.0
 10
95.825901
 20
37.541294
 30
0.0
 10
95.723500
 20
37.769646
 30
0.0
 10
95.652587
 20
38.006994
 30
0.0
 10
95.656820
 20
38.169724
 30
0.0
 10
95.698628
 20
38.321077
 30
0.0
 10
95.861358
 20
38.601290
 30
0.0
 10
96.072775
 20
38.866421
 30
0.0
 10
96.264082
 20
39.136051
 30
0.0
 10
96.505928
 20
39.603867
 30
0.0
 10
96.694060
 20
40.087031
 30
0.0
 10
96.829801
 20
40.583160
 30
0.0
 10
96.916326
 20
41.087491
 30
0.0
 10
96.955487
 20
41.597115
 30
0.0
 10
96.949931
 20
42.108326
 30
0.0
 10
96.901773
 20
42.617950
 30
0.0
 10
96.813925
 20
43.121223
 30
0.0
 10
96.589543
 20
43.962128
 30
0.0
 10
96.280487
 20
44.783188
 30
0.0
 10
96.174647
 20
45.119762
 30
0.0
 10
96.135750
 20
45.466391
 30
0.0
 10
96.153478
 20
45.815930
 30
0.0
 10
96.215395
 20
46.159913
 30
0.0
 10
96.347696
 20
46.716106
 30
0.0
 10
96.409349
 20
47.283942
 30
0.0
 10
96.370981
 20
47.849397
 30
0.0
 10
96.203488
 20
48.398182
 30
0.0
 10
96.164856
 20
48.624681
 30
0.0
 10
96.200048
 20
48.850387
 30
0.0
 10
96.388445
 20
49.280894
 30
0.0
 10
96.685329
 20
49.891331
 30
0.0
 10
96.923470
 20
50.521349
 30
0.0
 10
97.264013
 20
51.605952
 30
0.0
 10
97.540522
 20
52.704845
 30
0.0
 10
97.740562
 20
53.814851
 30
0.0
 10
97.851695
 20
54.933853
 30
0.0
 10
97.958065
 20
55.848847
 30
0.0
 10
98.143551
 20
56.755373
 30
0.0
 10
98.419531
 20
57.643907
 30
0.0
 10
98.796324
 20
58.505451
 30
0.0
 10
99.235563
 20
59.226227
 30
0.0
 10
99.458887
 20
59.585028
 30
0.0
 10
99.641198
 20
59.960763
 30
0.0
 10
99.853145
 20
60.589193
 30
0.0
 10
99.963219
 20
61.235086
 30
0.0
 10
99.989679
 20
61.888918
 30
0.0
 10
99.950783
 20
62.541956
 30
0.0
 10
99.860024
 20
63.012947
 30
0.0
 10
99.726136
 20
63.474943
 30
0.0
 10
99.343521
 20
64.367445
 30
0.0
 10
98.831516
 20
65.213378
 30
0.0
 10
98.216052
 20
66.006126
 30
0.0
 10
97.202626
 20
67.040191
 30
0.0
 10
96.650137
 20
67.521502
 30
0.0
 10
96.065631
 20
67.974765
 30
0.0
 10
95.663435
 20
68.338064
 30
0.0
 10
95.373432
 20
68.771482
 30
0.0
 10
95.194825
 20
69.249618
 30
0.0
 10
95.126029
 20
69.746276
 30
0.0
 10
95.172069
 20
70.181811
 30
0.0
 10
95.291934
 20
70.606762
 30
0.0
 10
95.581409
 20
71.447138
 30
0.0
 10
95.738847
 20
72.098853
 30
0.0
 10
95.839131
 20
72.758771
 30
0.0
 10
95.875911
 20
73.423187
 30
0.0
 10
95.840719
 20
74.088423
 30
0.0
 10
95.784359
 20
74.484823
 30
0.0
 10
95.688308
 20
74.876037
 30
0.0
 10
95.551773
 20
75.259498
 30
0.0
 10
95.375548
 20
75.629544
 30
0.0
 10
95.159633
 20
75.983529
 30
0.0
 10
94.903234
 20
76.316875
 30
0.0
 10
94.607144
 20
76.624898
 30
0.0
 10
94.270306
 20
76.903974
 30
0.0
 10
93.593718
 20
77.332920
 30
0.0
 10
92.831929
 20
77.640414
 30
0.0
 10
92.233399
 20
77.880726
 30
0.0
 10
91.688319
 20
78.200101
 30
0.0
 10
91.213887
 20
78.592876
 30
0.0
 10
90.828891
 20
79.052834
 30
0.0
 10
90.598423
 20
79.490538
 30
0.0
 10
90.452098
 20
79.953592
 30
0.0
 10
90.386476
 20
80.431119
 30
0.0
 10
90.399442
 20
80.910711
 30
0.0
 10
90.497609
 20
81.828033
 30
0.0
 10
90.478823
 20
82.751574
 30
0.0
 10
90.345199
 20
83.669928
 30
0.0
 10
90.096473
 20
84.569681
 30
0.0
 10
89.733703
 20
85.438925
 30
0.0
 10
89.257684
 20
86.265807
 30
0.0
 10
88.669738
 20
87.037915
 30
0.0
 10
87.969337
 20
87.742815
 30
0.0
 10
87.082920
 20
88.437925
 30
0.0
 10
86.102040
 20
89.032750
 30
0.0
 10
85.049453
 20
89.530440
 30
0.0
 10
83.944475
 20
89.936128
 30
0.0
 10
83.137703
 20
90.160934
 30
0.0
 10
82.335694
 20
90.395054
 30
0.0
 10
81.422552
 20
90.740280
 30
0.0
 10
80.538252
 20
91.134590
 30
0.0
 10
79.683588
 20
91.572851
 30
0.0
 10
78.857500
 20
92.051410
 30
0.0
 10
78.060254
 20
92.565108
 30
0.0
 10
77.290791
 20
93.110321
 30
0.0
 10
75.833363
 20
94.275708
 30
0.0
 10
75.037440
 20
95.020430
 30
0.0
 10
74.243104
 20
95.766158
 30
0.0
 10
73.438450
 20
96.413719
 30
0.0
 10
72.591988
 20
97.020954
 30
0.0
 10
71.703983
 20
97.583750
 30
0.0
 10
70.777347
 20
98.097967
 30
0.0
 10
69.805992
 20
98.560504
 30
0.0
 10
68.797594
 20
98.967743
 30
0.0
 10
67.758237
 20
99.314517
 30
0.0
 10
66.692685
 20
99.595657
 30
0.0
 10
65.606758
 20
99.805995
 30
0.0
 10
64.506013
 20
99.939846
 30
0.0
 10
63.396007
 20
99.992043
 30
0.0
 10
62.281768
 20
99.957934
 30
0.0
 10
60.960875
 20
99.750180
 30
0.0
 10
59.665648
 20
99.436999
 30
0.0
 10
59.037218
 20
99.233895
 30
0.0
 10
58.427045
 20
98.995650
 30
0.0
 10
57.838306
 20
98.719678
 30
0.0
 10
57.275497
 20
98.403913
 30
0.0
 10
56.529319
 20
97.871610
 30
0.0
 10
55.894010
 20
97.242135
 30
0.0
 10
55.627026
 20
96.894845
 30
0.0
 10
55.398939
 20
96.528451
 30
0.0
 10
55.212924
 20
96.144989
 30
0.0
 10
55.073479
 20
95.745493
 30
0.0
 10
54.925566
 20
95.053506
 30
0.0
 10
54.770509
 20
94.363556
 30
0.0
 10
54.558563
 20
93.788364
 30
0.0
 10
54.257975
 20
93.241590
 30
0.0
 10
53.854192
 20
92.750118
 30
0.0
 10
53.335308
 20
92.342366
 30
0.0
 10
52.989208
 20
92.170269
 30
0.0
 10
52.616119
 20
92.041567
 30
0.0
 10
52.247529
 20
91.906699
 30
0.0
 10
52.169471
 20
91.862246
 30
0.0
 10
51.914130
 20
91.800753
 30
0.0
 10
46.881663
 20
91.800753
 30
0.0
 10
46.684270
 20
91.841581
 30
0.0
 10
46.373627
 20
91.899687
 30
0.0
 10
46.083359
 20
91.997167
 30
0.0
 10
45.565533
 20
92.290081
 30
0.0
 10
45.133702
 20
92.680052
 30
0.0
 10
44.790513
 20
93.126859
 30
0.0
 10
44.521678
 20
93.615711
 30
0.0
 10
44.309202
 20
94.124594
 30
0.0
 10
44.151764
 20
94.648056
 30
0.0
 10
44.047511
 20
95.180621
 30
0.0
 10
43.871286
 20
95.875042
 30
0.0
 10
43.571492
 20
96.537659
 30
0.0
 10
43.153420
 20
97.151483
 30
0.0
 10
42.623158
 20
97.699513
 30
0.0
 10
42.191327
 20
98.049664
 30
0.0
 10
41.724569
 20
98.360815
 30
0.0
 10
41.227911
 20
98.635733
 30
0.0
 10
40.706380
 20
98.877185
 30
0.0
 10
39.609076
 20
99.270752
 30
0.0
 10
38.472610
 20
99.563635
 30
0.0
 10
37.439074
 20
99.746398
 30
0.0
 10
36.394690
 20
99.877584
 30
0.0
 10
35.342896
 20
99.958902
 30
0.0
 10
34.287663
 20
99.992062
 30
0.0
  0
ENDSEC
  0
SECTION
  2
OBJECTS
  0
DICTIONARY
  5
C
330
0
100
AcDbDictionary
  3
ACAD_GROUP
350
D
  3
ACAD_MLINESTYLE
350
17
  0
DICTIONARY
  5
D
330
C
100
AcDbDictionary
  0
DICTIONARY
  5
1A
330
C
100
AcDbDictionary
  0
DICTIONARY
  5
17
330
C
100
AcDbDictionary
  3
STANDARD
350
18
  0
DICTIONARY
  5
19
330
C
100
AcDbDictionary
  0
ENDSEC
  0
EOF
